<svg width="52" height="65" viewBox="0 0 52 65" fill="none" xmlns="http://www.w3.org/2000/svg">
<rect width="52" height="65" fill="#1E1E1E"/>
<path d="M9.875 60.75C7.875 61.4167 5.91667 62.2292 4 63.1875C2.04167 61.9792 0.75 60.75 0.125 59.5C0.208333 59.25 0.333333 58.3958 0.5 56.9375C0.666667 55.4792 0.833333 53.7708 1 51.8125C1.20833 49.8542 1.375 47.8333 1.5 45.75C1.625 43.6667 1.6875 41.8958 1.6875 40.4375C3.64583 39.5208 6.66667 39.0625 10.75 39.0625C11.2083 39.0625 11.6667 39.0625 12.125 39.0625C12.5833 39.0625 13.0625 39.0833 13.5625 39.125C16.5625 48.875 20.6667 54.1667 25.875 55C28 54.6667 29.625 53.8958 30.75 52.6875C31.9167 51.4375 32.5 50.0417 32.5 48.5C32.5 47.375 32.1875 46.3333 31.5625 45.375C30.9375 44.375 30.1042 43.4583 29.0625 42.625C28.0208 41.7917 26.7917 41.0208 25.375 40.3125C24 39.6042 22.5417 38.9167 21 38.25C19.4583 37.5417 17.8958 36.875 16.3125 36.25C14.7292 35.5833 13.2083 34.8958 11.75 34.1875C10.2083 33.4792 8.75 32.625 7.375 31.625C6 30.5833 4.79167 29.4167 3.75 28.125C2.70833 26.7917 1.875 25.3333 1.25 23.75C0.666667 22.1667 0.375 20.4583 0.375 18.625C0.375 16.6667 0.708333 14.625 1.375 12.5C2.04167 10.375 3.1875 8.4375 4.8125 6.6875C6.4375 4.9375 8.625 3.5 11.375 2.375C14.125 1.20833 17.5833 0.625 21.75 0.625C26.375 0.625 29.7917 0.875 32 1.375L34.3125 0.625H38.5625C39.1042 4.16667 39.75 7.47917 40.5 10.5625C41.2917 13.6458 42.1667 16.5208 43.125 19.1875C41.3333 20.9792 39.1667 21.875 36.625 21.875C35.2083 20.2083 33.8958 18.7083 32.6875 17.375C31.4792 16 30.3125 14.8125 29.1875 13.8125C28.1042 12.8125 27.0208 12 25.9375 11.375C24.8958 10.75 23.8125 10.3125 22.6875 10.0625C19.9375 10.5208 18.5625 11.7708 18.5625 13.8125C18.5625 15.4375 19.2708 16.8542 20.6875 18.0625C22.1042 19.2708 23.875 20.375 26 21.375C28.125 22.375 30.4375 23.3333 32.9375 24.25C35.4792 25.125 37.875 26.0625 40.125 27.0625C41.75 27.7708 43.2708 28.6875 44.6875 29.8125C46.1458 30.9375 47.4167 32.25 48.5 33.75C49.5833 35.2083 50.4375 36.8542 51.0625 38.6875C51.6875 40.4792 52 42.4167 52 44.5C52 47.5833 51.2083 50.3542 49.625 52.8125C48.0833 55.2708 46.0208 57.3542 43.4375 59.0625C40.8958 60.7708 37.9792 62.0833 34.6875 63C31.3958 63.9167 28.0417 64.375 24.625 64.375C18.75 64.375 13.8333 63.1667 9.875 60.75ZM24.1875 61.8125C29.3958 61.8125 33.8542 60.2708 37.5625 57.1875C41.2708 54.1042 43.125 50.6458 43.125 46.8125C43.125 43.0625 41.9792 39.8333 39.6875 37.125C37.3958 34.375 34.625 32.25 31.375 30.75C28.125 29.25 24.8542 27.875 21.5625 26.625C18.2708 25.3333 15.4792 23.8333 13.1875 22.125C10.8958 20.4167 9.75 18.4167 9.75 16.125C9.75 13.2083 10.8333 11 13 9.5C15.1667 8 17.7083 7.25 20.625 7.25C23.7083 7.25 26.4583 8.20833 28.875 10.125C31.2917 12.0417 34.25 15.1042 37.75 19.3125C38.875 19.3125 39.6875 19.0417 40.1875 18.5C38.6458 14.0833 36.3542 10.4375 33.3125 7.5625C30.3125 4.64583 26.4583 3.1875 21.75 3.1875C15.0417 3.1875 10.2292 4.79167 7.3125 8C4.39583 11.1667 2.9375 14.7083 2.9375 18.625C2.9375 21.9583 4.04167 24.8125 6.25 27.1875C8.5 29.5208 11.1875 31.3333 14.3125 32.625C17.4792 33.875 20.625 35.125 23.75 36.375C26.875 37.625 29.5417 39.25 31.75 41.25C33.9583 43.25 35.0625 45.6667 35.0625 48.5C35.0625 50.875 34.0417 53 32 54.875C29.9583 56.75 27.1042 57.6875 23.4375 57.6875C19.0208 57.6875 15.6042 56.2917 13.1875 53.5C10.8125 50.6667 8.8125 46.7292 7.1875 41.6875C5.72917 41.6875 4.75 41.8125 4.25 42.0625C4.25 45.0625 4.10417 48.5 3.8125 52.375C3.52083 56.25 3.22917 58.5417 2.9375 59.25C3.22917 59.6667 3.625 60.0417 4.125 60.375C5.83333 59.1667 7.14583 57.8958 8.0625 56.5625C11.7292 58.6042 14.5833 59.9792 16.625 60.6875C18.7083 61.4375 21.2292 61.8125 24.1875 61.8125Z" fill="white"/>
</svg>
